# xmcd
#
# Track frame offsets:
# 150
# 16444
# 28393
# 40704
# 54853
# 71929
# 89385
# 104353
# 117311
# 132886
# 145046
# 158315
# 171610
#
# Disc length: 2519 seconds
#
#
# Revision: 0
# Processed by: cddbd v1.5.2PL0 Copyright (c) Steve Scherf et al.
# Submitted via: FreeRIP 2.944 
#
DISCID=af09d50d
DTITLE=Batidao Sertanejo 3 - Batidao Sertanejo 3
DYEAR=2009
DGENRE=Country
TTITLE0=Meteoro
TTITLE1=Robin hood da paixao
TTITLE2=Ei, psiu beijo me liga
TTITLE3=Sufoco
TTITLE4=Amor verdadeiro
TTITLE5=Saudade
TTITLE6=Promessa
TTITLE7=O amor e assim
TTITLE8=Sob a lua e os olhares
TTITLE9=Bateu ficou
TTITLE10=Marvada pinga
TTITLE11=Voce nao vale nada
TTITLE12=Largado de mais
EXTD=
EXTT0=
EXTT1=
EXTT2=
EXTT3=
EXTT4=
EXTT5=
EXTT6=
EXTT7=
EXTT8=
EXTT9=
EXTT10=
EXTT11=
EXTT12=
PLAYORDER=
